<?xml version="1.0" standalone="no"?>
<!DOCTYPE svg PUBLIC "-//W3C//DTD SVG 20010904//EN"
 "http://www.w3.org/TR/2001/REC-SVG-20010904/DTD/svg10.dtd">
<svg version="1.0" xmlns="http://www.w3.org/2000/svg"
 width="1600.000000pt" height="1600.000000pt" viewBox="0 0 1600.000000 1600.000000"
 preserveAspectRatio="xMidYMid meet">
<metadata>
Created by potrace 1.11, written by Peter Selinger 2001-2013
</metadata>
<g transform="translate(0.000000,1600.000000) scale(0.100000,-0.100000)"
fill="#000000" stroke="none">
<path d="M6115 15994 c-190 -20 -329 -37 -435 -55 -132 -22 -437 -96 -632
-154 -132 -39 -322 -78 -620 -129 -361 -62 -458 -71 -823 -71 -355 0 -451 10
-596 59 l-65 23 -140 -165 c-76 -90 -148 -170 -159 -178 -11 -8 -18 -16 -15
-17 3 -2 -33 -49 -80 -105 l-85 -101 -177 -1 -178 0 0 -90 0 -90 2709 0 2709
0 68 -68 c81 -79 164 -123 277 -146 211 -44 420 13 554 151 l61 63 2706 0
2706 0 0 90 0 90 -177 0 -178 1 -85 102 c-47 56 -84 105 -82 110 1 4 -2 7 -7
7 -8 0 -187 203 -270 307 l-33 42 -48 -19 c-112 -44 -252 -62 -522 -67 -284
-6 -458 4 -724 42 -314 45 -709 125 -853 172 -101 33 -400 107 -531 132 -274
51 -448 66 -785 66 -281 -1 -338 -4 -465 -23 -375 -59 -666 -165 -934 -342
-56 -37 -123 -85 -149 -108 -27 -23 -49 -42 -51 -42 -2 0 -16 11 -32 25 -105
92 -306 216 -468 290 -90 40 -295 109 -406 134 -207 49 -352 63 -655 66 -159
2 -308 1 -330 -1z m715 -28 c440 -67 748 -182 1030 -387 158 -115 169 -129
100 -129 -53 0 -135 -18 -193 -43 l-48 -20 -27 22 c-308 246 -685 362 -1182
362 -333 0 -675 -50 -919 -135 -100 -35 -384 -103 -546 -130 -396 -68 -951
-97 -1473 -78 -314 12 -702 36 -750 47 -26 6 -33 -5 91 139 l34 40 69 -22
c238 -74 634 -88 1079 -37 174 20 567 87 740 126 77 17 217 53 310 79 356 102
545 139 895 176 170 18 646 12 790 -10z m3265 -4 c324 -44 451 -71 758 -158
428 -122 951 -211 1384 -235 292 -16 583 8 760 62 l68 21 43 -48 c23 -27 56
-66 73 -86 l30 -37 -23 -6 c-49 -11 -447 -36 -755 -47 -349 -13 -725 -3 -1078
28 -323 28 -682 98 -964 189 -247 79 -574 125 -886 126 -362 0 -626 -52 -890
-176 -84 -39 -221 -124 -290 -179 l-30 -24 -74 25 c-40 13 -105 27 -142 30
-41 4 -69 10 -69 17 1 27 218 178 380 264 91 48 302 131 420 165 80 23 300 64
410 76 52 6 109 13 125 15 17 2 158 3 315 1 216 -2 321 -8 435 -23z m-3175
-231 c129 -25 282 -64 351 -91 140 -55 283 -136 391 -221 l48 -37 -38 -24
c-20 -12 -54 -38 -74 -56 l-37 -34 -55 25 c-104 48 -346 110 -538 137 -130 19
-420 28 -632 19 -295 -11 -476 -34 -871 -108 -236 -45 -369 -64 -589 -87 -209
-22 -936 -30 -1245 -15 -319 16 -732 50 -929 77 l-42 5 62 74 c53 62 67 73 88
70 63 -11 398 -36 606 -45 906 -39 1670 34 2187 209 130 44 438 104 642 125
22 2 157 3 300 1 217 -2 279 -6 375 -24z m3000 4 c191 -29 394 -74 500 -110
140 -47 221 -68 439 -110 409 -79 672 -99 1276 -99 467 0 679 8 959 39 l121
13 67 -71 c37 -40 65 -73 64 -75 -6 -6 -259 -32 -496 -51 -383 -32 -607 -41
-995 -41 -580 0 -847 23 -1360 120 -354 66 -529 87 -823 99 -223 9 -498 -1
-656 -23 -177 -26 -408 -86 -509 -133 l-57 -27 -38 36 c-20 19 -52 45 -70 58
-32 21 -32 23 -16 41 35 39 193 137 310 192 136 64 353 125 539 151 147 20
593 15 745 -9z m-3050 -310 c170 -15 241 -26 345 -51 81 -20 239 -71 296 -95
l45 -20 -28 -56 c-15 -31 -28 -66 -28 -79 l0 -24 -2511 0 c-2005 0 -2509 3
-2503 13 5 6 43 53 86 103 53 62 85 91 96 88 18 -4 386 -37 607 -54 288 -22
528 -31 885 -30 580 0 880 26 1340 115 124 24 279 51 345 60 315 43 738 56
1025 30z m2990 0 c245 -18 372 -36 625 -86 382 -75 681 -107 1081 -117 302 -8
775 0 1019 17 201 14 734 60 757 65 13 3 42 -24 96 -87 43 -51 81 -98 86 -104
6 -10 -496 -13 -2498 -13 l-2504 0 -7 33 c-4 17 -18 53 -31 79 l-24 47 27 15
c54 27 279 95 387 116 242 48 631 62 986 35z m-1794 -146 c69 -13 171 -64 234
-118 l44 -39 -54 -27 c-49 -25 -99 -57 -243 -157 -57 -40 -86 -36 -149 18 -29
25 -91 71 -138 102 -47 30 -87 58 -90 60 -3 2 17 24 43 48 73 66 188 117 278
123 8 1 42 -4 75 -10z"/>
<path d="M2270 14245 c0 -5 21 -82 46 -170 52 -184 124 -530 156 -755 l22
-155 6 -4855 5 -4855 28 -121 c170 -764 722 -1406 1576 -1833 142 -71 331
-156 439 -197 35 -13 131 -35 215 -49 1161 -196 2190 -493 2699 -781 219 -124
404 -282 463 -396 27 -52 32 -57 76 -65 l46 -10 31 62 c105 213 459 444 987
643 534 201 1326 402 2100 532 220 37 270 51 460 133 848 363 1440 896 1718
1547 46 108 99 264 118 347 46 202 42 -145 49 5048 5 3810 9 4869 19 4940 50
363 97 581 208 977 5 17 -275 18 -5731 20 -3819 2 -5736 0 -5736 -7z m2931
-660 c13 -28 19 -61 17 -89 l-3 -45 -69 -12 c-188 -31 -297 -159 -284 -333 3
-33 8 -69 13 -78 6 -15 2 -18 -19 -18 -70 0 -148 -68 -194 -168 l-25 -56 -34
39 c-19 22 -48 69 -66 105 -27 54 -32 75 -30 128 2 84 27 182 66 262 30 60 34
65 62 62 71 -8 195 -96 195 -139 0 -32 20 -17 49 36 l31 58 -50 72 c-28 39
-54 71 -58 71 -4 1 -20 12 -37 25 l-29 24 74 35 c90 42 188 64 293 65 l78 1
20 -45z m349 9 c74 -9 145 -20 157 -25 39 -14 76 -76 81 -134 l4 -54 64 -27
c35 -15 63 -28 62 -30 -4 -3 -251 51 -363 80 -55 15 -123 29 -151 32 l-51 6 4
43 c4 29 -1 56 -16 89 l-21 48 48 -6 c26 -3 108 -13 182 -22z m4027 -14 c24
-11 63 -32 86 -48 35 -23 64 -31 172 -45 140 -19 284 -51 326 -73 16 -8 29
-25 32 -42 5 -27 10 -30 59 -35 29 -4 110 -7 180 -7 150 0 160 -2 147 -37 -13
-36 -11 -51 11 -73 22 -22 70 -27 70 -7 1 29 19 -20 30 -80 15 -78 1 -164 -37
-235 -29 -54 -31 -54 -133 -33 -63 13 -201 20 -330 16 -54 -2 -107 -27 -133
-63 -25 -33 -34 -118 -17 -158 31 -75 129 -118 240 -104 71 8 73 10 53 42 -21
33 -23 35 65 -61 80 -87 91 -120 46 -137 -39 -15 -66 -12 -177 19 -334 96
-398 111 -418 100 -18 -9 -20 -8 -14 10 14 44 -67 53 -193 22 -43 -10 -93 -21
-112 -25 -35 -6 -35 -5 -13 12 12 9 34 25 48 35 35 25 32 53 -7 74 -25 14 -56
18 -130 18 -53 0 -100 -4 -105 -8 -12 -13 26 -37 69 -44 21 -3 38 -10 38 -16
0 -6 -19 -33 -41 -60 -39 -45 -40 -50 -25 -65 13 -14 41 -18 134 -20 112 -3
121 -2 195 27 92 37 127 40 127 12 0 -11 20 -36 48 -57 26 -21 101 -91 167
-155 66 -64 131 -120 144 -124 21 -6 23 -11 17 -51 -11 -85 -62 -146 -178
-217 l-62 -37 50 6 c164 20 294 92 354 197 17 29 28 57 26 63 -3 7 13 15 41
19 39 6 49 3 70 -17 47 -44 56 -73 50 -172 -3 -50 -8 -101 -12 -113 -10 -32 6
-29 44 9 79 77 91 144 56 308 -6 24 -1 26 112 63 65 21 125 37 133 37 8 0 27
-19 42 -43 15 -23 42 -64 61 -91 l35 -48 16 53 c21 74 88 172 123 182 177 50
383 65 483 35 51 -16 55 -19 57 -50 7 -88 -33 -125 -146 -137 l-66 -6 80 -13
c106 -17 169 -47 173 -85 8 -64 -41 -72 -193 -31 -62 16 -107 23 -127 19 -42
-10 -24 -22 52 -34 36 -6 76 -19 90 -29 30 -22 39 -76 17 -100 -8 -10 -18 -34
-21 -55 -5 -28 -14 -40 -32 -47 -47 -18 -79 -10 -158 39 -90 57 -151 75 -256
74 -98 -1 -163 -25 -309 -111 -221 -130 -374 -191 -591 -237 -107 -23 -281
-30 -379 -16 -46 7 -85 10 -88 7 -3 -2 5 -23 18 -45 81 -144 342 -230 765
-251 482 -24 760 -165 864 -439 l19 -48 -34 -33 c-30 -29 -37 -31 -74 -25 -38
6 -41 9 -41 39 0 18 -12 51 -28 77 -28 43 -98 106 -108 96 -3 -3 11 -37 30
-76 41 -81 45 -115 15 -131 -35 -19 -70 -2 -138 70 -62 65 -111 96 -111 70 0
-22 33 -74 77 -122 l46 -48 -119 0 -119 0 -150 98 c-134 86 -161 100 -245 122
-87 22 -92 25 -60 30 19 4 45 12 57 18 32 18 72 74 80 113 7 38 12 40 -67 -23
-25 -20 -70 -48 -100 -63 -55 -28 -56 -28 -190 -21 -128 7 -333 32 -280 35 54
2 90 56 90 134 0 34 -10 34 -41 1 -30 -33 -103 -70 -155 -79 -54 -10 -63 -18
-34 -27 18 -5 14 -6 -12 -2 -46 6 -289 86 -380 125 -90 38 -199 102 -276 162
l-63 50 49 51 c51 52 125 156 117 164 -2 3 -22 -11 -44 -31 -43 -39 -93 -67
-154 -87 -44 -14 -219 -3 -517 31 -387 45 -803 150 -1067 269 -105 48 -245
135 -311 194 -54 48 -68 56 -102 56 -51 0 -137 -33 -230 -88 -174 -103 -290
-152 -455 -193 -209 -51 -316 -62 -540 -56 -173 5 -220 10 -350 37 -82 17
-198 47 -256 66 -117 38 -171 42 -267 19 -136 -32 -240 -115 -268 -213 -44
-150 28 -299 205 -422 44 -30 71 -91 71 -161 0 -63 -20 -93 -69 -104 -36 -8
-75 10 -67 31 10 26 -68 133 -122 166 -52 32 -50 13 6 -46 39 -41 52 -62 52
-85 0 -35 -31 -61 -75 -64 -25 -2 -33 7 -77 81 -50 84 -102 132 -122 112 -7
-7 1 -21 22 -43 17 -18 40 -50 51 -72 l19 -40 -21 -7 c-12 -3 -52 -6 -88 -7
l-67 -1 -25 63 c-50 127 -76 259 -92 463 -5 67 -3 89 15 137 17 44 79 149 131
221 4 5 33 -4 65 -20 75 -37 143 -38 199 -4 l38 24 -39 16 c-39 17 -128 104
-122 119 5 14 108 95 171 135 40 25 57 32 57 22 0 -20 74 -82 132 -112 65 -33
194 -63 303 -70 l90 -6 -52 27 c-109 56 -167 138 -182 259 l-7 65 50 22 c28
12 88 34 132 49 l82 28 11 -57 c25 -126 115 -265 228 -350 38 -28 72 -51 76
-51 5 0 -1 15 -13 33 -104 155 -125 311 -59 445 28 57 39 69 116 120 l86 57
-180 7 c-263 9 -506 54 -652 119 l-67 30 7 63 c9 95 48 138 143 162 l29 7 -26
19 c-15 11 -27 25 -27 31 0 6 12 -1 28 -16 34 -33 84 -54 192 -83 47 -12 74
-23 61 -23 -58 -2 -87 -68 -60 -138 19 -50 89 -131 117 -137 15 -3 45 -8 66
-12 l40 -7 -22 28 c-42 53 -24 145 45 222 27 30 32 32 129 38 l101 6 12 -58
c18 -95 101 -253 133 -253 4 0 8 19 8 43 0 62 40 135 109 198 124 115 133 121
170 126 36 5 37 4 61 -47 l24 -52 -29 -53 c-26 -49 -32 -54 -71 -60 -44 -6
-45 -8 -59 -69 -10 -47 -7 -217 5 -286 14 -79 44 -168 79 -235 l25 -50 7 91
c8 111 29 205 75 344 33 98 39 107 86 145 83 66 198 239 198 298 0 14 10 17
68 17 124 0 138 -6 162 -62 49 -114 36 -209 -41 -294 -105 -116 -133 -305 -62
-422 l28 -47 6 90 c12 162 58 238 191 316 102 60 138 120 138 229 0 31 -7 78
-16 104 -9 26 -14 50 -10 53 6 6 226 -25 265 -38 23 -8 22 -8 -6 -4 -35 5 -41
-3 -21 -23 12 -12 13 -53 8 -302 -3 -112 13 -217 54 -355 l24 -80 7 40 c44
245 101 423 210 652 0 1 45 -3 99 -10 l98 -12 -2 -172 c-1 -196 12 -318 46
-417 41 -121 49 -114 49 42 0 112 5 151 23 217 24 84 111 277 131 289 6 4 9
12 6 17 -4 5 32 9 87 9 93 0 327 23 403 40 22 5 41 7 43 5 2 -1 -22 -15 -53
-30 -40 -20 -73 -28 -114 -29 l-57 -1 24 -48 c21 -39 25 -62 25 -130 0 -45 -7
-107 -15 -137 -26 -98 11 -293 79 -409 32 -55 95 -125 147 -163 52 -38 61 -35
32 10 -36 53 -72 155 -86 242 -15 89 -7 230 16 292 69 187 84 279 61 365 l-14
51 99 32 c54 17 135 46 178 65 l80 33 14 -26 c37 -73 27 -172 -29 -291 -29
-61 -37 -91 -44 -175 -9 -104 -1 -245 18 -328 24 -102 85 -223 151 -297 34
-38 46 -37 30 4 -82 215 -39 604 83 767 41 55 97 176 119 257 24 92 31 307 10
320 -9 5 -6 13 12 30 14 13 53 66 87 118 61 92 62 94 51 132 -23 76 -7 100 48
71 17 -9 20 -6 26 17 14 59 22 66 71 59 25 -3 65 -15 90 -26z m-3414 -95 c78
-20 156 -39 172 -43 43 -11 67 -61 63 -133 -4 -53 -2 -57 21 -67 l26 -11 -25
4 c-14 2 -110 18 -215 36 l-190 31 0 87 c0 47 -4 96 -8 109 -5 14 -5 22 3 22
6 0 75 -16 153 -35z m1490 -55 c20 -38 38 -56 73 -72 39 -19 46 -20 54 -8 12
19 3 48 -24 80 l-21 25 24 -20 c27 -23 51 -73 51 -109 0 -59 -81 -111 -191
-123 l-59 -6 0 39 c0 51 -48 150 -94 194 l-37 35 33 6 c18 4 62 7 98 8 l65 1
28 -50z m-304 -46 c47 -41 78 -103 83 -159 l3 -40 -162 -3 -163 -2 10 25 c14
38 12 110 -4 150 l-15 35 32 1 c18 0 55 7 82 14 78 20 92 18 134 -21z m-595 4
l158 -12 26 -35 c27 -35 36 -97 18 -133 -6 -13 -2 -17 21 -21 44 -7 -127 4
-280 18 -76 7 -140 14 -142 17 -3 3 -8 47 -12 98 l-6 93 29 -6 c16 -3 100 -12
188 -19z m-869 -528 c-16 -4 -50 -7 -75 -7 l-45 0 50 7 c28 4 61 7 75 7 22 1
21 0 -5 -7z m-132 -17 c-7 -2 -19 -2 -25 0 -7 3 -2 5 12 5 14 0 19 -2 13 -5z
m4522 -84 c33 -5 68 -17 77 -26 25 -23 23 -70 -4 -84 -24 -13 -228 -13 -241 0
-10 10 27 111 45 123 7 5 24 6 38 3 14 -3 52 -10 85 -16z m-2933 -1105 c93
-53 201 -102 252 -115 l45 -11 -27 -34 c-60 -77 -186 -158 -262 -170 -39 -6
-41 -9 -35 -33 11 -48 93 -159 147 -199 75 -56 127 -71 320 -87 173 -15 180
-16 242 -67 26 -22 29 -30 29 -93 1 -68 1 -68 -42 -107 -47 -41 -61 -46 -61
-23 0 8 7 15 15 15 49 0 -41 124 -108 149 -52 20 -48 0 13 -65 33 -36 60 -71
60 -78 0 -7 -19 -19 -42 -26 -63 -20 -68 -30 -14 -30 29 0 45 -4 41 -10 -3 -5
-36 -9 -73 -9 -37 1 -57 4 -44 6 32 6 27 17 -14 32 -20 7 -62 40 -94 74 -47
49 -63 60 -89 59 -60 -1 -63 -21 -7 -47 24 -12 43 -34 65 -77 32 -60 32 -60 9
-55 -13 3 -52 9 -88 13 -36 3 -76 13 -90 22 -72 45 -196 162 -255 242 -75 101
-85 109 -186 144 -41 15 -103 44 -139 64 -61 36 -67 42 -110 128 -25 49 -79
137 -121 194 l-77 104 30 37 30 37 76 -77 c42 -43 113 -102 157 -133 108 -74
109 -74 81 -33 -14 20 -28 57 -32 82 -8 52 1 172 14 185 5 5 37 11 73 14 60 6
69 4 137 -30 39 -20 76 -36 80 -36 5 0 12 18 16 40 3 22 8 40 10 40 2 0 33
-16 68 -36z m2425 -670 c-3 -3 -12 -4 -19 -1 -8 3 -5 6 6 6 11 1 17 -2 13 -5z
m40 -10 c-3 -3 -12 -4 -19 -1 -8 3 -5 6 6 6 11 1 17 -2 13 -5z m-5257 -140 c0
-2 -7 -4 -15 -4 -8 0 -15 4 -15 10 0 5 7 7 15 4 8 -4 15 -8 15 -10z m3450
-2563 l0 -2049 -87 -64 c-49 -36 -142 -103 -208 -150 -66 -46 -151 -107 -190
-135 -70 -50 -684 -489 -1890 -1347 -346 -247 -665 -474 -707 -505 -42 -31
-345 -247 -674 -481 -328 -234 -761 -543 -963 -687 l-366 -261 -43 66 c-123
188 -249 504 -294 734 l-23 113 -1 3408 -2 3407 2724 0 2724 0 0 -2049z m2870
1068 l0 -260 -33 25 c-65 50 -139 47 -204 -9 -23 -19 -44 -35 -47 -35 -3 0 -6
122 -6 270 l0 270 145 0 145 0 0 -261z m-38 -244 c18 -15 42 -42 54 -61 11
-19 23 -32 25 -30 10 10 9 -151 -1 -194 -15 -62 -67 -123 -124 -145 -176 -67
-303 228 -172 400 54 71 153 84 218 30z m-277 -197 c0 -90 3 -108 23 -142 l23
-39 -21 -51 c-12 -28 -49 -112 -82 -186 -33 -74 -86 -193 -118 -265 -32 -71
-90 -204 -130 -295 -155 -352 -221 -493 -250 -536 -31 -44 -47 -57 -36 -29 4
10 -1 15 -16 15 -20 0 -20 3 -14 83 9 100 14 118 86 287 32 74 90 212 129 305
125 294 202 475 261 615 31 74 77 181 100 238 24 56 44 102 44 102 1 0 1 -46
1 -102z m702 -698 c93 -221 164 -387 221 -521 37 -85 52 -135 57 -185 3 -38 9
-81 11 -96 5 -25 3 -28 -21 -28 -14 0 -24 -4 -21 -9 3 -4 16 -6 28 -4 21 4 26
-4 52 -79 42 -121 42 -122 -11 -22 -27 51 -53 89 -60 87 -6 -2 -26 17 -43 42
-36 52 -73 134 -315 685 -102 234 -177 403 -235 531 l-47 105 26 50 c20 38 27
67 30 127 l3 79 130 -304 c71 -166 159 -373 195 -458z m1223 -273 c394 -115
450 -133 458 -142 5 -6 -1 -84 -12 -173 l-21 -164 -160 -1 c-174 -2 -209 -11
-289 -72 -75 -57 -87 -183 -29 -306 30 -64 137 -187 205 -235 l27 -19 -126
-198 -126 -197 -52 49 c-96 91 -218 136 -363 134 -79 0 -83 -1 -113 -32 -95
-100 -94 -274 3 -451 16 -30 35 -61 41 -68 14 -17 9 -21 -123 -76 -58 -25
-140 -61 -182 -80 l-77 -35 -33 61 c-86 161 -266 279 -405 265 -67 -7 -164
-58 -209 -111 -67 -78 -113 -213 -114 -329 l0 -49 -177 7 c-98 3 -188 8 -200
10 -21 5 -21 8 -16 122 5 109 3 124 -21 198 -63 184 -186 248 -334 174 -76
-37 -185 -151 -238 -247 -20 -37 -38 -68 -39 -70 -2 -3 -80 43 -230 136 -49
31 -92 57 -93 58 -2 1 13 44 34 96 35 86 38 101 39 193 0 127 -15 178 -69 231
-53 54 -104 68 -216 61 -77 -4 -170 -31 -291 -81 -12 -5 -39 30 -118 151 -57
86 -98 159 -92 161 24 8 110 82 144 124 104 127 115 296 25 394 -57 62 -111
78 -254 72 l-114 -4 0 51 c0 29 -3 106 -6 171 l-7 120 199 47 c303 71 460 107
472 107 6 0 20 -30 33 -67 176 -537 470 -916 870 -1123 146 -75 219 -103 358
-135 225 -52 433 -53 658 -4 400 86 718 348 928 764 71 140 144 343 170 477
23 112 23 111 43 105 9 -2 118 -34 242 -70z m-2575 -657 c-25 -49 -47 -90 -50
-90 -4 0 50 154 61 171 3 5 12 9 20 9 10 0 1 -25 -31 -90z m-1777 -1144 c64
-47 151 -109 192 -139 41 -29 437 -312 880 -627 443 -315 843 -601 890 -635
47 -34 243 -174 435 -310 193 -137 388 -276 435 -310 47 -34 126 -90 175 -125
50 -35 128 -92 175 -125 47 -34 173 -124 280 -200 107 -76 218 -155 245 -175
28 -20 314 -225 637 -455 l587 -419 -46 -65 c-221 -312 -545 -600 -937 -830
-139 -82 -386 -202 -555 -270 -147 -60 -164 -64 -411 -106 -875 -150 -1741
-382 -2277 -611 -415 -177 -669 -351 -816 -558 -13 -18 -16 -16 -44 25 -51 73
-193 201 -309 278 -121 81 -401 223 -569 290 -553 220 -1406 443 -2220 580
-265 45 -323 64 -610 198 -543 255 -962 583 -1253 982 l-61 84 22 17 c12 9
353 252 757 540 404 288 1001 713 1325 945 325 232 874 623 1220 870 347 246
668 476 715 510 80 58 193 139 510 364 74 53 218 156 320 228 102 73 186 133
188 133 1 0 55 -38 120 -84z"/>
<path d="M9345 13349 c-10 -16 3 -56 32 -100 26 -39 26 -39 15 -142 -12 -101
-6 -167 17 -190 10 -10 11 -8 30 83 8 33 20 52 50 78 30 24 41 41 41 61 0 31
-43 101 -89 145 -17 17 -31 35 -31 43 0 12 -30 33 -49 33 -5 0 -13 -5 -16 -11z"/>
<path d="M9879 13332 c-20 -2 -45 -12 -54 -22 -17 -18 -15 -19 36 -26 57 -8
99 -38 99 -73 0 -52 44 -69 96 -35 23 15 26 15 43 0 25 -23 102 -21 132 3 28
23 21 33 -36 51 -22 7 -75 30 -118 52 -82 41 -138 55 -198 50z"/>
<path d="M10444 13159 c8 -39 31 -78 52 -86 20 -7 64 13 64 30 0 20 -62 75
-94 83 -29 7 -29 6 -22 -27z"/>
<path d="M9680 12980 c-12 -8 -13 -13 -2 -30 17 -28 16 -30 -18 -30 -36 0 -38
-9 -5 -40 30 -28 24 -40 -20 -40 -79 0 -39 -60 45 -68 50 -5 52 -4 50 19 -4
48 1 56 40 72 46 18 71 57 51 81 -7 8 -37 22 -66 31 -62 18 -56 17 -75 5z"/>
<path d="M9844 12193 c-11 -53 -26 -93 -33 -93 -4 0 -36 25 -71 55 -36 30 -70
55 -76 55 -19 0 -44 -76 -44 -130 0 -28 -4 -50 -8 -50 -5 0 -45 16 -90 35 -94
41 -168 54 -194 33 -24 -18 -13 -30 52 -63 30 -15 84 -51 120 -79 75 -61 118
-90 143 -99 27 -10 54 25 62 82 8 57 17 62 78 36 48 -20 90 -19 109 3 25 27
76 119 78 139 4 36 -1 44 -47 73 -58 37 -71 37 -79 3z"/>
<path d="M9509 11263 c-26 -30 -97 -54 -184 -60 -47 -3 -85 -9 -85 -12 0 -3
36 -24 79 -45 72 -36 80 -38 99 -24 27 18 51 50 86 111 28 47 30 61 5 30z"/>
<path d="M4809 9720 c-190 -32 -334 -254 -395 -605 -8 -49 -18 -174 -21 -277
l-6 -188 -31 -4 c-17 -3 -69 -11 -116 -18 l-85 -13 -30 34 c-77 87 -204 93
-288 13 -47 -44 -61 -80 -60 -157 0 -64 -2 -73 -30 -104 -55 -63 -72 -116 -72
-216 1 -73 6 -102 27 -153 39 -93 84 -163 170 -262 43 -48 78 -91 78 -93 0 -3
-28 -49 -61 -103 -72 -113 -126 -225 -165 -339 -24 -69 -27 -97 -28 -205 -1
-117 1 -129 26 -181 77 -155 243 -229 488 -216 177 9 410 67 611 152 l78 33
75 -112 c147 -217 298 -364 445 -434 61 -30 88 -37 156 -40 74 -4 89 -1 144
23 44 20 79 46 121 91 36 39 67 64 80 64 27 0 89 26 114 48 30 26 66 113 66
157 0 44 -28 112 -53 134 -11 9 -15 22 -11 40 3 14 7 35 9 47 5 20 12 21 192
27 259 8 414 38 560 108 158 76 251 193 261 330 15 213 -181 481 -529 725 -43
31 -79 57 -79 59 0 2 27 52 60 112 207 371 209 648 6 788 -163 112 -467 110
-800 -5 -47 -16 -61 -17 -68 -8 -4 7 -29 51 -54 98 -126 231 -331 478 -473
569 -110 70 -214 97 -312 81z m141 -176 c154 -71 331 -277 479 -554 l51 -96
-118 -57 c-65 -31 -180 -93 -256 -137 l-137 -81 -132 16 c-73 8 -178 15 -234
15 l-102 0 -7 47 c-8 53 2 283 17 388 34 245 117 418 223 466 61 28 148 25
216 -7z m1455 -643 c56 -25 100 -62 121 -104 42 -80 36 -210 -17 -347 -26 -68
-110 -223 -150 -279 l-17 -22 -143 74 c-79 41 -181 90 -226 108 l-82 34 -45
130 c-24 72 -62 172 -84 223 -22 51 -36 95 -30 98 23 14 210 73 278 88 110 23
125 24 240 22 83 -2 115 -7 155 -25z m-796 -301 c28 -69 51 -130 51 -137 0 -8
-19 -5 -61 9 -33 11 -63 18 -66 15 -3 -4 -11 -31 -18 -61 l-13 -55 108 -36
107 -36 38 -136 c35 -127 115 -499 115 -533 0 -8 -45 -53 -100 -99 -55 -47
-100 -89 -100 -95 1 -6 18 -30 38 -53 l37 -42 71 59 c87 72 81 83 90 -161 l7
-176 -99 13 c-112 16 -303 53 -321 63 -7 4 22 30 73 66 46 32 84 63 84 68 0 5
-16 28 -36 52 l-35 44 -107 -77 c-171 -124 -143 -115 -263 -80 -89 25 -417
144 -428 154 -2 2 -25 66 -51 144 -26 78 -50 143 -52 145 -5 6 -99 -24 -111
-34 -4 -4 6 -46 22 -94 l29 -86 -51 23 c-64 28 -286 157 -338 195 l-38 27 103
115 c57 63 119 129 138 147 l35 33 28 -118 c15 -65 29 -121 31 -125 3 -4 31 2
63 13 l58 20 -18 66 c-10 36 -27 106 -38 154 l-19 89 107 88 c108 91 267 212
354 271 l49 33 136 -31 c75 -17 146 -34 158 -37 18 -5 23 1 33 40 19 79 19 80
-61 100 -40 9 -81 20 -92 23 -14 4 -7 12 34 35 131 75 255 137 262 130 4 -4
30 -63 57 -132z m-1215 -92 c3 -13 6 -43 7 -68 0 -25 6 -88 13 -140 l13 -95
-120 -120 c-66 -66 -151 -157 -189 -202 l-70 -83 -44 38 c-61 53 -143 157
-173 222 -44 95 -40 231 9 275 17 15 21 15 42 1 96 -63 241 -1 284 121 l18 52
66 6 c36 4 70 8 75 10 33 11 63 4 69 -17z m399 3 c5 -5 -6 -19 -25 -32 -18
-12 -77 -58 -132 -102 -54 -43 -99 -77 -101 -75 -4 6 -25 173 -25 202 l0 29
138 -7 c75 -4 141 -11 145 -15z m1345 -386 c72 -35 132 -67 132 -71 0 -17
-224 -274 -239 -274 -4 0 -13 33 -19 74 -7 40 -28 138 -46 218 l-32 145 35
-14 c20 -8 96 -43 169 -78z m325 -181 c230 -148 407 -331 453 -466 69 -204
-61 -350 -366 -408 -91 -18 -310 -31 -397 -24 l-83 7 0 177 c0 98 -5 224 -11
281 l-10 102 74 76 c83 85 177 194 222 258 17 24 34 43 38 43 5 0 41 -21 80
-46z m-2287 -439 c120 -86 243 -160 394 -235 l139 -70 65 -136 c36 -75 66
-140 66 -144 0 -23 -317 -138 -470 -170 -136 -30 -299 -25 -378 9 -204 91
-189 354 40 709 33 50 62 92 63 92 2 0 38 -25 81 -55z m859 -435 c28 -9 48
-21 46 -26 -2 -5 -30 -23 -62 -41 -67 -37 -64 -38 -108 60 l-30 66 52 -21 c29
-11 75 -28 102 -38z m313 -94 c117 -33 270 -64 422 -85 121 -16 125 -18 125
-41 0 -20 -9 -27 -49 -42 -135 -48 -187 -200 -108 -313 l30 -43 -35 -35 c-19
-20 -51 -43 -70 -52 -43 -20 -125 -21 -180 -1 -127 45 -288 207 -423 425 l-49
80 107 56 c59 31 111 61 117 66 13 12 15 12 113 -15z"/>
<path d="M5070 8064 c-19 -8 -52 -32 -73 -52 -134 -129 -107 -339 54 -426 95
-52 205 -38 287 37 83 77 110 176 77 278 -23 68 -101 149 -161 167 -56 16
-141 15 -184 -4z"/>
<path d="M7425 5608 c-27 -15 -35 -28 -35 -59 0 -58 73 -79 109 -33 25 32 26
43 3 70 -22 28 -52 36 -77 22z"/>
<path d="M7240 5552 c0 -10 30 -39 105 -104 43 -37 77 -72 158 -163 22 -24
139 -199 157 -235 13 -24 12 -25 -7 -7 -11 9 -29 17 -40 17 -25 0 -63 -40 -63
-66 0 -79 116 -87 132 -9 3 15 13 3 37 -45 31 -60 32 -63 9 -42 -30 27 -62 28
-88 2 -39 -39 -14 -110 39 -110 31 0 71 36 72 66 0 21 38 -61 38 -85 1 -12 -2
-12 -11 -3 -18 18 -63 14 -81 -6 -25 -28 -21 -67 9 -91 34 -27 46 -26 82 4
l29 25 7 -47 c9 -69 7 -165 -5 -283 l-12 -106 -58 -31 c-51 -28 -59 -30 -63
-15 -14 41 -111 94 -198 107 -59 9 -85 -5 -168 -89 -35 -36 -72 -66 -80 -66
-9 0 -27 11 -40 24 -42 46 -116 45 -165 0 -25 -23 -27 -30 -21 -74 6 -44 4
-50 -25 -79 -33 -34 -40 -36 -146 -50 -115 -15 -152 -51 -206 -198 -28 -75
-36 -88 -57 -91 -45 -5 -82 -25 -91 -49 -4 -12 -16 -23 -26 -23 -38 0 -101
-41 -118 -77 -15 -30 -15 -41 -5 -79 7 -25 17 -47 21 -50 15 -9 10 -24 -9 -24
-26 0 -60 -27 -79 -63 -45 -87 20 -395 101 -482 28 -29 40 -35 75 -35 33 0 49
-6 71 -29 34 -34 31 -56 -11 -97 -51 -49 -32 -117 39 -145 28 -11 89 -11 116
0 16 6 24 -1 44 -41 42 -85 120 -125 226 -115 34 3 80 1 104 -5 41 -10 42 -12
36 -43 -4 -25 0 -38 19 -61 22 -25 32 -29 95 -32 70 -4 71 -4 61 -29 -18 -47
-11 -98 16 -123 21 -20 36 -24 88 -25 34 0 78 3 98 8 34 7 37 5 48 -22 17 -40
60 -78 106 -94 42 -15 41 -12 69 -169 l7 -37 -35 14 c-37 16 -74 19 -100 9
-12 -5 -7 -18 26 -72 93 -151 136 -290 148 -478 7 -104 14 -140 49 -243 45
-133 153 -371 173 -385 16 -10 97 26 122 53 14 16 15 25 4 72 -6 30 -12 113
-12 184 0 108 5 150 28 249 31 135 126 442 181 589 20 54 34 101 31 104 -10
10 -133 -55 -175 -92 -47 -43 -47 -45 -29 86 14 109 25 122 86 106 38 -10 48
-9 80 8 20 11 48 37 61 57 24 38 24 38 77 32 51 -6 55 -5 88 28 27 27 36 46
42 86 3 29 11 49 16 46 19 -12 58 7 64 30 5 21 10 23 42 19 46 -6 87 23 97 68
5 22 11 29 22 24 25 -9 63 22 63 52 0 15 11 36 25 49 19 17 25 33 25 64 0 38
-1 40 -32 40 -18 1 -46 7 -63 14 l-30 13 45 6 c29 5 65 2 100 -8 114 -31 192
-12 237 56 13 21 27 55 30 77 l5 40 59 4 c102 7 149 72 149 201 0 74 0 75 30
80 43 9 64 55 50 108 -6 22 -20 55 -30 72 l-19 31 32 11 c24 7 33 17 35 37 6
52 -68 162 -193 289 l-76 76 -2 106 c-3 156 -29 184 -182 192 -47 2 -89 6 -94
9 -4 3 -20 37 -36 77 -55 142 -127 185 -325 195 -119 7 -189 -9 -270 -61 -39
-25 -56 -29 -124 -30 l-79 -2 -33 37 c-18 20 -53 45 -76 55 -24 11 -44 20 -46
21 -2 1 5 44 14 95 22 127 22 258 0 334 -88 296 -348 635 -638 833 -45 31 -78
41 -78 24z m740 -2437 c32 -33 68 -111 57 -122 -6 -5 -149 229 -154 250 -3 12
9 -3 27 -33 17 -30 48 -73 70 -95z m-304 100 c10 -42 -1 -48 -19 -11 -14 31
-14 36 -2 36 8 0 17 -11 21 -25z m977 -149 c90 -21 189 -95 247 -186 21 -33
29 -56 25 -69 -13 -41 -174 -101 -269 -101 -27 0 -34 5 -44 33 -17 47 -86 149
-143 211 l-49 54 32 23 c27 20 101 47 133 48 6 0 36 -5 68 -13z m-1293 -39
c30 -15 70 -40 88 -55 l34 -28 -66 -69 c-37 -38 -92 -106 -123 -152 -31 -46
-62 -83 -69 -83 -19 0 -129 85 -157 122 -63 83 -49 188 35 270 31 30 32 30
117 26 67 -3 98 -10 141 -31z"/>
<path d="M7516 5508 c-9 -12 -16 -33 -16 -45 0 -30 34 -63 64 -63 19 0 22 -4
19 -24 -9 -44 71 -100 92 -66 3 6 11 10 18 10 8 0 8 -3 -1 -12 -31 -31 4 -98
51 -98 30 0 67 35 67 64 0 35 -43 70 -77 63 -28 -5 -29 -4 -25 27 3 27 -2 37
-24 55 -16 13 -34 19 -46 15 -16 -5 -18 -2 -12 21 14 58 -76 102 -110 53z"/>
<path d="M7292 5404 c-15 -10 -22 -25 -22 -48 0 -64 70 -90 109 -40 27 34 26
50 -4 79 -28 29 -51 31 -83 9z"/>
<path d="M7402 5270 c-41 -39 -17 -110 38 -110 29 0 70 38 70 65 0 23 -41 65
-64 65 -12 0 -32 -9 -44 -20z"/>
<path d="M7778 5183 c-24 -28 -26 -46 -11 -75 34 -68 136 -27 117 47 -11 45
-77 61 -106 28z"/>
<path d="M7485 5155 c-14 -13 -25 -33 -25 -45 0 -29 35 -60 68 -60 58 0 83 70
40 110 -29 27 -54 25 -83 -5z"/>
<path d="M7852 5070 c-28 -26 -28 -60 -2 -88 40 -43 110 -14 110 46 0 57 -65
82 -108 42z"/>
<path d="M7932 4937 c-27 -29 -28 -47 -1 -81 23 -30 49 -33 84 -10 33 22 35
76 3 98 -32 22 -61 20 -86 -7z"/>
</g>
</svg>
